# xmcd
#
# Track frame offsets:
#	183
#	11773
#	24023
#	35258
#	47388
#	60698
#	75143
#	87743
#	101225
#	117970
#	131093
#	140633
#	153248
#	166813
#	179918
#	189888
#
# Disc length: 2658 seconds
#
# Revision: 1
# Processed by: cddbd v1.5.2PL0 Copyright (c) Steve Scherf et al.
# Submitted via: EZCDAudioConverter 2.2.2.1
#
DISCID=c80a6010
DTITLE=Country Trucking - Country Trucking volume 2
DYEAR=1986
DGENRE=country
TTITLE0=Reuben James
TTITLE1=Baby what about you
TTITLE2=Hello little bluebird
TTITLE3=Fourteen karat mind
TTITLE4=Crying my heart out over you
TTITLE5=She got the goldmine
TTITLE6=Eighteen wheels
TTITLE7=Come on it
TTITLE8=Mountain music
TTITLE9=Following the feeling
TTITLE10=Orange blossom special*
TTITLE11=Just to satisfy you
TTITLE12=Paradisse tonight
TTITLE13=Girl on the billboard
TTITLE14=Don't come home a drinkin'
TTITLE15=Back in the country
EXTD=
EXTT0=
EXTT1=
EXTT2=
EXTT3=
EXTT4=
EXTT5=
EXTT6=
EXTT7=
EXTT8=
EXTT9=
EXTT10=
EXTT11=
EXTT12=
EXTT13=
EXTT14=
EXTT15=
PLAYORDER=
